<svg width="78" height="41" viewBox="0 0 78 41" fill="none" xmlns="http://www.w3.org/2000/svg">
<g clip-path="url(#clip0_101_2470)">
<path d="M55.8332 17.1985C55.8332 22.5315 51.513 26.8517 46.1801 26.8517C40.8504 26.8517 36.5269 22.5315 36.5269 17.1985C36.5269 11.8689 40.8504 7.54538 46.1801 7.54538C51.513 7.54538 55.8332 11.8689 55.8332 17.1985ZM48.3401 23.6822L47.8897 22.2125H44.4703L44.0199 23.6822C44.6315 23.8894 45.2759 24.0044 45.9499 24.0274C46.0255 24.0307 46.1044 24.034 46.1801 24.034C46.259 24.034 46.3346 24.0307 46.4135 24.0274C47.0842 24.0044 47.7286 23.8894 48.3401 23.6822ZM50.76 12.6317L47.1072 12.1846L47.2355 11.1193L47.7713 11.185C47.7911 11.185 47.8141 11.1883 47.8338 11.1883C48.1067 11.1883 48.3401 10.9878 48.373 10.7149C48.4092 10.419 48.1988 10.1527 47.9029 10.1132L46.1735 9.90277C46.1504 9.8995 46.1274 9.8995 46.1044 9.8995C45.8381 9.8995 45.6079 10.1001 45.5718 10.373C45.5389 10.6656 45.746 10.9352 46.0419 10.9713L46.5779 11.0371L46.4464 12.1024L42.7935 11.6519C41.8401 11.5369 40.9688 12.2142 40.8504 13.1709L40.1731 18.6814C40.058 19.6349 40.7353 20.5029 41.6921 20.6212L49.6586 21.601C50.6121 21.7194 51.4833 21.0388 51.5985 20.082L52.2757 14.5715C52.3941 13.6181 51.7135 12.7468 50.76 12.6317Z" fill="white"/>
<path d="M19.9376 8.36259C19.622 8.12585 19.1945 8.0042 18.6652 8.0042H16.242C15.6601 8.0042 15.1998 8.12258 14.8776 8.36259C14.5093 8.63549 14.3186 9.06947 14.3186 9.67773V10.4964C13.7564 9.56265 12.9739 8.84589 12.0336 8.36259C11.0735 7.86612 9.94908 7.60967 8.72599 7.60967C7.47002 7.60967 6.29954 7.87926 5.25071 8.36259C4.41889 8.74726 3.66269 9.26675 2.99853 9.89801C1.13103 11.6702 0 14.3169 0 17.2628C0 20.2088 1.13103 22.8588 2.99853 24.6309C3.47857 25.088 4.00462 25.4858 4.5767 25.8146C5.78993 26.5182 7.19385 26.916 8.72599 26.916C10.2187 26.916 11.5996 26.5379 12.7076 25.8146C13.4013 25.3641 13.9899 24.7789 14.4272 24.0687V24.9926C14.4272 25.2787 14.414 25.5548 14.3844 25.8146C14.0786 28.7934 12.0533 30.0888 9.36712 30.0888C7.87115 30.0888 6.4475 29.6943 5.12906 29.0531C4.02434 28.5205 3.16951 28.7342 2.56453 29.8028L2.0319 30.7628C1.42365 31.8314 1.63735 32.867 2.77825 33.3635C4.84302 34.363 7.33852 34.8957 10.0444 34.8957C15.5352 34.8957 20.0724 32.41 20.5459 25.8146C20.5755 25.4365 20.5886 25.0452 20.5886 24.6375V9.92761C20.5886 9.20757 20.365 8.6815 19.9376 8.36259ZM10.3666 22.0006C7.83826 22.0006 6.26996 19.8635 6.26996 17.2628C6.26996 14.6654 7.83826 12.525 10.3666 12.525C12.8227 12.525 14.4272 14.6293 14.4272 17.2628C14.4272 19.8997 12.8227 22.0006 10.3666 22.0006Z" fill="white"/>
<path d="M35.5813 8.36259C35.453 7.96146 35.167 7.64583 34.5785 7.64583C34.5061 7.60967 34.0787 7.60967 34.0425 7.60967C33.431 7.60967 32.4775 7.78721 31.5766 8.36259C30.5837 8.99385 29.6598 10.1052 29.3409 11.9924V9.92761C29.3409 9.20757 29.1042 8.67823 28.6735 8.36259C28.3545 8.12585 27.9304 8.0042 27.4175 8.0042H25.0667C24.5373 8.0042 24.1099 8.12585 23.7942 8.36259C23.3668 8.6815 23.1432 9.20757 23.1432 9.92761V24.6014C23.1432 25.0978 23.2518 25.5055 23.4622 25.8146C23.7745 26.2814 24.317 26.5247 25.0667 26.5247H27.6312C28.3808 26.5247 28.9233 26.2814 29.2357 25.8146C29.4461 25.5055 29.5546 25.0978 29.5546 24.6014V18.7259C29.5546 15.4118 30.873 13.7021 33.4376 13.7021C33.7236 13.7021 33.9735 13.7021 34.2924 13.7382C35.1111 13.8435 35.6832 13.3832 35.6832 12.3146V9.10565C35.6832 8.85906 35.6569 8.59603 35.5813 8.36259Z" fill="white"/>
<path d="M77.8521 23.9964L76.9972 22.2144C76.6422 21.5042 76.1062 21.3957 75.3237 21.5732C75.0015 21.6817 74.6464 21.7179 74.4688 21.7179C73.5778 21.7179 72.8282 21.3957 72.0457 20.0772L69.9447 16.5888L74.6102 10.355C75.2316 9.50346 75.2284 8.77357 74.7187 8.36259C74.4393 8.13572 74.0053 8.0042 73.4365 8.0042H70.5497C69.9875 8.0042 69.5337 8.11929 69.1425 8.36259C68.8137 8.56643 68.531 8.85906 68.2713 9.25031L64.1746 15.4841V2.69431C64.1746 1.4482 63.4973 0.770897 62.2512 0.770897H59.6866C58.4405 0.770897 57.7632 1.4482 57.7632 2.69431V24.6014C57.7632 25.0978 57.8717 25.5055 58.0822 25.8146C58.3945 26.2814 58.937 26.5247 59.6866 26.5247H62.2512C63.0008 26.5247 63.5433 26.2814 63.8556 25.8146C64.0661 25.5055 64.1746 25.0978 64.1746 24.6014V18.0848L66.2755 22.2867C67.0514 23.8912 67.972 25.0551 69.0965 25.8146C70.1946 26.5609 71.4933 26.916 73.042 26.916C74.2552 26.916 75.6788 26.6694 77.1057 25.8836C77.1485 25.8606 77.1879 25.8376 77.2274 25.8146C77.7633 25.4989 78 25.0847 78 24.6342C78 24.4271 77.9507 24.2101 77.8521 23.9964Z" fill="white"/>
<path d="M26.2287 31.6741C27.054 31.6741 27.8668 31.9575 28.4585 32.7953V31.8097H29.6537V37.9694H28.4585V36.9838C27.8668 37.8217 27.054 38.105 26.2287 38.105C24.3806 38.105 23.1729 36.6512 23.1729 34.8896C23.1729 33.1277 24.3806 31.6741 26.2287 31.6741ZM26.3761 32.7335C25.0953 32.7335 24.3681 33.719 24.3681 34.8896C24.3681 36.0598 25.0953 37.0454 26.3761 37.0454C27.6207 37.0454 28.471 36.1338 28.4829 34.8896C28.471 33.6453 27.6207 32.7335 26.3761 32.7335Z" fill="white"/>
<path d="M34.5551 31.6741C35.1093 31.6741 35.9346 31.8097 36.7606 32.4254L36.1939 33.2386C35.5404 32.7459 34.7644 32.7335 34.6045 32.7335C33.2737 32.7335 32.2884 33.6206 32.2884 34.8896C32.2884 36.1585 33.2737 37.0454 34.6045 37.0454C34.7644 37.0454 35.5404 37.0332 36.1939 36.5406L36.7606 37.3534C35.9346 37.9694 35.1093 38.105 34.5551 38.105C32.3746 38.105 31.0932 36.713 31.0932 34.9636C31.0932 33.1524 32.3128 31.6741 34.5551 31.6741Z" fill="white"/>
<path d="M40.5293 31.6741C41.3547 31.6741 42.1675 31.9575 42.7592 32.7953V31.8097H43.9544V37.9694H42.7592V36.9838C42.1675 37.8217 41.3547 38.105 40.5293 38.105C38.6812 38.105 37.4735 36.6512 37.4735 34.8896C37.4735 33.1277 38.6812 31.6741 40.5293 31.6741ZM40.6768 32.7335C39.396 32.7335 38.6687 33.719 38.6687 34.8896C38.6687 36.0598 39.396 37.0454 40.6768 37.0454C41.9213 37.0454 42.7717 36.1338 42.7835 34.8896C42.7717 33.6453 41.9213 32.7335 40.6768 32.7335Z" fill="white"/>
<path d="M48.4616 31.6741C49.2875 31.6741 50.1004 31.9575 50.692 32.7953V29.0622H51.8866V37.9694H50.692V36.9838C50.1004 37.8217 49.2875 38.105 48.4616 38.105C46.6141 38.105 45.4064 36.6511 45.4064 34.8896C45.4064 33.1277 46.6141 31.6741 48.4616 31.6741ZM48.6096 32.7334C47.3282 32.7334 46.6016 33.719 46.6016 34.8896C46.6016 36.0598 47.3282 37.0454 48.6096 37.0454C49.8542 37.0454 50.7039 36.1338 50.7164 34.8896C50.7039 33.6453 49.8542 32.7334 48.6096 32.7334Z" fill="white"/>
<path d="M59.4865 36.9592C58.698 37.8464 57.7002 38.105 56.7887 38.105C54.645 38.105 53.3142 36.6636 53.3142 34.9143C53.3142 33.1155 54.7187 31.6741 56.6287 31.6741C58.2544 31.6741 59.7701 32.7213 59.7701 35.0005H54.5094C54.4726 36.1954 55.4335 37.0454 56.8011 37.0454C57.5403 37.0454 58.2057 36.7992 58.8217 36.2694L59.4865 36.9592ZM54.62 34.0764H58.538C58.2057 32.9552 57.331 32.7213 56.6531 32.7213C55.9265 32.7213 55.0268 33.0046 54.62 34.0764Z" fill="white"/>
<path d="M65.3125 34.4953C65.3125 33.1895 64.7084 32.7335 64.0555 32.7335C63.4151 32.7335 62.3061 33.1649 62.3061 35.1114V37.9694H61.1115V31.8097H62.3061V33.0415C62.5648 32.1421 63.3657 31.6741 64.2773 31.6741C64.869 31.6741 65.7561 31.8713 66.2366 32.9677C66.7414 31.8959 67.5918 31.6741 68.3309 31.6741C69.7847 31.6741 70.7082 32.5117 70.7082 34.4953V37.9694H69.5136V34.4953C69.5136 33.1895 68.91 32.7335 68.2565 32.7335C67.678 32.7335 66.569 33.0908 66.5071 34.9758V37.9694H65.3125V34.4953Z" fill="white"/>
<path d="M76.6074 31.8097H78L74.2176 40.7291H73.0592L74.2051 37.7601L71.606 31.8097H72.973L74.858 36.405L76.6074 31.8097Z" fill="white"/>
<path d="M43.9739 16.3503C43.8786 17.1229 43.1749 17.672 42.4023 17.5767C41.6296 17.4846 41.0806 16.781 41.1759 16.0051C41.268 15.2324 41.9716 14.6833 42.7475 14.7787C43.5202 14.874 44.0692 15.5776 43.9739 16.3503Z" fill="white"/>
<path d="M51.2763 17.2479C51.1809 18.0205 50.4773 18.5696 49.7047 18.4742C48.932 18.3789 48.3829 17.6753 48.4783 16.9027C48.5736 16.13 49.2772 15.5809 50.0499 15.6763C50.8225 15.7716 51.3716 16.4752 51.2763 17.2479Z" fill="white"/>
</g>
<defs>
<clipPath id="clip0_101_2470">
<rect width="78" height="39.9582" fill="white" transform="translate(0 0.770897)"/>
</clipPath>
</defs>
</svg>
