<svg width="189" height="171" viewBox="0 0 189 171" fill="none" xmlns="http://www.w3.org/2000/svg">
<g clip-path="url(#clip0_101_1830)">
<path d="M102.055 117.232H57.6054" stroke="black" stroke-width="2.5184" stroke-miterlimit="10"/>
<path d="M30.1549 76.056V32.6136C30.1549 30.473 31.0363 28.3324 32.5474 26.8213C34.0584 25.3103 36.199 24.4288 38.3397 24.4288H144.994C147.135 24.4288 149.275 25.3103 150.786 26.8213C152.297 28.3324 153.179 30.473 153.179 32.6136V53.3904" stroke="black" stroke-width="2.5184" stroke-miterlimit="10"/>
<path d="M62.5163 139.52H102.055" stroke="black" stroke-width="2.5184" stroke-miterlimit="10"/>
<path d="M80.271 117.106C80.271 126.676 75.2342 136.875 69.4419 139.268" stroke="black" stroke-width="2.5184" stroke-miterlimit="10"/>
<path d="M57.7314 98.3439H101.677" stroke="black" stroke-width="2.5184" stroke-miterlimit="10"/>
<path d="M79.8933 91.0405C79.6414 91.0405 79.5155 90.9146 79.3896 90.7886L62.5163 74.0413C62.3904 73.9154 62.3904 73.9154 62.3904 73.7895C62.3904 73.6635 62.3904 73.6635 62.3904 73.5376C62.3904 73.4117 62.3904 73.2858 62.3904 73.2858C62.3904 73.1598 62.5163 73.1598 62.5163 73.0339L68.3086 67.2416C67.679 66.9898 67.1754 66.7379 66.6717 66.2343C66.2939 65.8565 65.9162 65.3528 65.7902 64.8491C65.5384 64.3454 65.4125 63.8418 65.4125 63.2122C65.4125 62.4566 65.6643 61.5752 66.168 60.9456C66.6717 60.316 67.3013 59.6864 68.0568 59.4346C68.8123 59.1827 69.6938 59.0568 70.4493 59.1827C71.2048 59.3086 71.9603 59.6864 72.5899 60.316C73.0936 60.8197 73.3454 61.3234 73.5973 61.953L79.3896 56.1607C79.5155 56.0347 79.5155 56.0347 79.6414 56.0347C79.7674 56.0347 79.7674 56.0347 79.8933 56.0347C80.0192 56.0347 80.1451 56.0347 80.1451 56.0347C80.271 56.0347 80.271 56.1607 80.397 56.1607L86.1893 61.953C86.4411 61.3234 86.693 60.8197 87.1966 60.316C87.5744 59.9383 88.0781 59.6864 88.5818 59.4346C89.0854 59.1827 89.5891 59.1827 90.2187 59.1827C90.9742 59.1827 91.8557 59.4346 92.4853 59.9383C93.1149 60.4419 93.7445 61.0715 93.9963 61.8271C94.2482 62.5826 94.3741 63.464 94.2482 64.2195C94.1222 64.975 93.7445 65.7306 93.1149 66.3602C92.6112 66.7379 92.1075 67.1157 91.6038 67.3675L97.3962 73.1599C97.5221 73.2858 97.648 73.5376 97.648 73.6635C97.648 73.9154 97.5221 74.0413 97.3962 74.1672L90.9742 80.5891C90.8483 80.715 90.7224 80.7151 90.5965 80.7151C90.4706 80.7151 90.3446 80.7151 90.2187 80.7151C90.0928 80.7151 89.9669 80.5891 89.841 80.4632C89.715 80.3373 89.715 80.2114 89.715 80.0855C89.5891 79.5818 89.4632 79.204 89.0854 78.9522C88.8336 78.5744 88.3299 78.3226 87.9522 78.1967C87.5744 78.0707 87.0707 78.0707 86.567 78.1967C86.1893 78.3226 85.6856 78.5744 85.4338 78.8263C85.056 79.204 84.9301 79.5818 84.8042 79.9595C84.6782 80.3373 84.6782 80.841 84.8042 81.3446C84.9301 81.7224 85.1819 82.2261 85.5597 82.4779C85.9374 82.7298 86.3152 82.9816 86.693 83.1075C86.8189 83.1075 86.9448 83.2334 87.0707 83.2334C87.1966 83.3594 87.1966 83.4853 87.3226 83.6112C87.3226 83.7371 87.3226 83.8631 87.3226 83.989C87.3226 84.1149 87.1966 84.2408 87.0707 84.3667L80.5229 90.9146C80.271 91.0405 80.1451 91.0405 79.8933 91.0405Z" stroke="#005FBE" stroke-width="1.8888" stroke-miterlimit="10"/>
<path d="M72.3381 88.2703L68.3086 92.5515" stroke="#005FBE" stroke-width="1.8888" stroke-linecap="round" stroke-linejoin="round"/>
<path d="M64.9088 81.7224L61.1312 85.5" stroke="#005FBE" stroke-width="1.8888" stroke-linecap="round" stroke-linejoin="round"/>
<path d="M68.1827 84.9963L60.5016 92.8034" stroke="#005FBE" stroke-width="1.8888" stroke-linecap="round" stroke-linejoin="round"/>
<path d="M116.914 42.5613L121.069 38.4059" stroke="#005FBE" stroke-width="1.8888" stroke-linecap="round" stroke-linejoin="round"/>
<path d="M110.24 35.2579L114.018 31.4803" stroke="#005FBE" stroke-width="1.8888" stroke-linecap="round" stroke-linejoin="round"/>
<path d="M113.64 38.5319L121.447 30.7249" stroke="#005FBE" stroke-width="1.8888" stroke-linecap="round" stroke-linejoin="round"/>
<path d="M100.796 64.7232L102.055 65.9824" stroke="#005FBE" stroke-width="1.8888" stroke-linecap="round" stroke-linejoin="round"/>
<path d="M117.166 53.2645L118.803 51.6276C118.928 51.5016 119.054 51.2498 119.18 50.998C119.306 50.7461 119.306 50.4943 119.306 50.2424C119.306 49.9906 119.306 49.7388 119.18 49.4869C119.054 49.2351 118.928 49.1092 118.803 48.8573L104.448 35.0061C104.322 34.8802 104.07 34.7543 103.818 34.6284C103.692 34.5024 103.44 34.5024 103.188 34.5024C102.937 34.5024 102.685 34.5024 102.433 34.6284C102.181 34.7543 102.055 34.8802 101.803 35.0061L97.0184 39.917C97.7739 40.0429 98.5294 40.4207 99.0331 40.9244C99.6627 41.428 100.04 42.0576 100.292 42.8132C100.544 43.5687 100.544 44.3242 100.418 45.0797C100.292 45.8352 99.7887 46.5908 99.285 47.0944C98.7813 47.5981 98.0258 48.1018 97.2702 48.2277C96.5147 48.4796 95.7592 48.3536 95.0037 48.2277C94.2482 47.9759 93.6186 47.5981 92.989 46.9685C92.4853 46.3389 92.1075 45.7093 91.9816 44.9538L87.8262 49.1092C87.7003 49.2351 87.5744 49.4869 87.4485 49.7388C87.3226 49.9906 87.3226 50.2424 87.3226 50.4943C87.3226 50.7461 87.3226 50.998 87.4485 51.2498C87.5744 51.5016 87.7003 51.6276 87.8262 51.8794L91.9816 56.0348C92.1075 55.2792 92.4853 54.6496 93.1149 54.02C93.6186 53.5164 94.3741 53.0127 95.0037 52.8868C95.7592 52.6349 96.5147 52.6349 97.2702 52.8868C98.0258 53.1386 98.6554 53.5164 99.285 54.02C99.7887 54.5237 100.166 55.2792 100.418 55.9088C100.67 56.6644 100.67 57.4199 100.418 58.1754C100.166 58.9309 99.7887 59.5605 99.285 60.0642C98.7813 60.5679 98.0258 60.9456 97.2702 61.1975L100.796 64.7232" stroke="#005FBE" stroke-width="1.8888" stroke-linecap="round" stroke-linejoin="round"/>
<path d="M51.8131 79.204H23.3552L13.9112 88.648V127.809C13.9112 128.187 13.9112 128.439 14.0371 128.691C14.163 128.942 14.289 129.194 14.5408 129.446C14.7926 129.698 15.0445 129.824 15.2963 129.95C15.5482 130.076 15.9259 130.076 16.1778 130.076H51.6872C52.3168 130.076 52.9464 129.824 53.3242 129.32C53.8278 128.817 54.0797 128.313 54.0797 127.683V81.5965C54.0797 80.9669 53.8278 80.3373 53.3242 79.9596C53.0723 79.4559 52.4427 79.204 51.8131 79.204Z" stroke="black" stroke-width="2.3673" stroke-miterlimit="10"/>
<path d="M17.437 89.9072H24.4885V82.8557" stroke="black" stroke-width="1.8888" stroke-miterlimit="10"/>
<path d="M36.7027 106.403H31.2882C30.2808 106.403 29.1475 106.78 28.392 107.41C27.6365 108.166 27.0069 109.047 26.881 110.18C26.881 110.306 26.881 110.432 26.881 110.558V115.721C26.881 117.61 27.7624 119.247 29.0216 120.632C30.4067 121.891 32.1696 122.646 33.9325 122.52C35.8213 122.52 37.5842 121.891 38.8434 120.632C40.2285 119.372 40.984 117.61 40.984 115.847V110.684C40.984 110.558 40.984 110.432 40.984 110.306C40.8581 109.299 40.3544 108.292 39.473 107.536C38.8434 106.78 37.836 106.403 36.7027 106.403Z" stroke="#005FBE" stroke-width="1.8888" stroke-miterlimit="10"/>
<path d="M37.5842 106.403V104.136C37.5842 103.633 37.5842 103.129 37.3323 102.751C37.2064 102.247 36.9546 101.87 36.5768 101.618C36.199 101.24 35.8213 100.988 35.4435 100.862C35.0658 100.736 34.5621 100.61 34.0584 100.61C33.5547 100.61 33.177 100.736 32.6733 100.862C32.2955 100.988 31.7918 101.24 31.54 101.618C31.1622 101.996 30.9104 102.373 30.7845 102.751C30.6586 103.129 30.5326 103.633 30.5326 104.136V106.529" stroke="#005FBE" stroke-width="1.8888" stroke-miterlimit="10"/>
<path d="M31.54 100.736L29.0216 94.944" stroke="#005FBE" stroke-width="1.8888" stroke-miterlimit="10"/>
<path d="M36.7027 100.736L39.2211 94.944" stroke="#005FBE" stroke-width="1.8888" stroke-miterlimit="10"/>
<path d="M41.2358 108.795L43.6283 106.403L44.7616 101.618" stroke="#005FBE" stroke-width="1.8888" stroke-miterlimit="10"/>
<path d="M41.2358 118.239L43.6283 120.632L44.7616 124.157" stroke="#005FBE" stroke-width="1.8888" stroke-miterlimit="10"/>
<path d="M41.2358 112.321L44.7616 113.454L47.1541 116.98" stroke="#005FBE" stroke-width="1.8888" stroke-miterlimit="10"/>
<path d="M27.0069 108.795L24.6144 106.403L23.4811 101.618" stroke="#005FBE" stroke-width="1.8888" stroke-miterlimit="10"/>
<path d="M27.0069 118.239L24.6144 120.632L23.4811 124.157" stroke="#005FBE" stroke-width="1.8888" stroke-miterlimit="10"/>
<path d="M27.0069 112.321L23.4811 113.454L21.0886 116.98" stroke="#005FBE" stroke-width="1.8888" stroke-miterlimit="10"/>
<path d="M125.476 118.995L125.224 118.743L124.973 118.491L124.721 118.113L124.469 117.862C123.084 116.728 121.321 116.099 119.558 116.099C118.299 116.099 117.04 116.35 116.032 116.98L115.78 117.106H115.655L115.529 117.232L115.277 117.358C114.899 117.61 114.521 117.987 114.144 118.365H114.018C113.136 119.498 112.507 120.632 112.129 122.017C112.129 122.017 112.129 122.017 112.129 122.143C112.129 122.395 112.129 122.646 112.003 123.024C111.373 125.291 110.996 127.683 110.744 129.95C110.618 131.083 110.492 131.965 110.492 131.965C110.492 132.09 110.492 132.216 110.618 132.342C110.618 132.468 110.744 132.594 110.87 132.72C110.996 132.846 111.247 132.972 111.499 132.972L113.514 132.72C115.906 132.468 118.173 132.09 120.44 131.461L121.321 131.209H121.447C122.706 130.831 123.839 130.202 124.847 129.32C125.224 128.942 125.476 128.565 125.854 128.187L125.98 127.935C125.98 127.935 125.98 127.935 125.98 127.809V127.683C125.98 127.557 126.106 127.557 126.106 127.431C126.861 126.046 127.113 124.535 126.987 123.15C126.861 121.639 126.232 120.254 125.35 119.121L125.476 118.995ZM116.41 118.743L116.662 118.617H116.788C117.669 118.239 118.677 117.987 119.684 118.113C120.691 118.239 121.573 118.491 122.454 118.995L122.706 119.121L122.832 119.247H122.958L123.084 119.373L123.336 119.624L123.588 119.876L123.713 120.002L123.839 120.128L123.965 120.38C124.721 121.135 125.099 122.143 125.35 123.15C125.602 124.158 125.476 125.291 125.099 126.298V126.424L124.973 126.55C124.721 126.928 124.469 127.306 124.091 127.683C123.21 128.439 122.202 128.942 121.069 129.194L120.062 129.446H119.684H119.306C117.04 129.95 114.647 130.454 112.255 130.579C112.507 128.313 112.884 126.172 113.514 123.906C113.514 123.906 113.514 123.906 113.514 123.78V123.528C113.64 123.15 113.64 122.898 113.766 122.521C114.018 121.387 114.521 120.38 115.277 119.498C115.655 119.373 116.032 118.995 116.41 118.743Z" fill="#005FBE"/>
<path d="M114.773 128.439C114.899 128.565 115.025 128.565 115.025 128.691C115.151 128.691 115.277 128.816 115.403 128.816C115.529 128.816 115.529 128.816 115.655 128.816C116.662 128.565 121.699 127.054 122.958 125.794C123.713 125.039 124.091 124.157 124.091 123.024C124.091 122.017 123.713 121.009 122.958 120.254C122.202 119.498 121.321 119.121 120.188 119.121C119.18 119.121 118.173 119.498 117.417 120.254C116.158 121.513 114.647 126.55 114.395 127.557C114.395 127.683 114.395 127.935 114.395 128.061C114.395 128.187 114.647 128.313 114.773 128.439ZM116.788 126.424C117.292 124.787 117.921 123.15 118.803 121.639C119.18 121.261 119.684 121.135 120.188 121.135C120.44 121.135 120.691 121.135 120.943 121.261C121.195 121.387 121.447 121.513 121.573 121.765C121.825 122.017 121.951 122.269 121.951 122.52C122.076 122.772 122.076 123.024 122.076 123.276C122.076 123.78 121.825 124.157 121.573 124.535C120.188 125.291 118.551 126.046 116.788 126.424Z" fill="#005FBE"/>
<path d="M167.911 75.9301C167.911 75.8042 167.785 75.6783 167.66 75.5523C167.534 75.4264 167.408 75.3005 167.282 75.3005C165.015 74.7968 162.749 74.7968 160.608 75.0487C155.571 75.5523 150.786 77.9448 147.135 81.5965C144.994 83.7371 140.839 88.5221 135.928 94.5663L125.728 96.8328C124.217 97.2106 122.706 97.9661 121.573 99.0994L114.521 106.151C114.395 106.277 114.269 106.403 114.269 106.655C114.269 106.781 114.269 107.032 114.395 107.158C114.395 107.284 114.521 107.284 114.521 107.41C114.647 107.536 114.647 107.536 114.773 107.536C114.899 107.536 115.025 107.536 115.151 107.536L126.358 106.403C126.232 106.781 126.106 107.284 125.98 107.662L122.202 109.677C122.076 109.803 121.951 109.803 121.825 109.929C121.699 110.054 121.699 110.18 121.699 110.306C121.699 110.432 121.699 110.558 121.699 110.684C121.699 110.81 121.825 110.936 121.951 111.062L131.772 120.884C131.898 121.009 132.15 121.135 132.402 121.135H132.528C132.654 121.135 132.78 121.009 132.906 121.009C133.032 120.884 133.157 120.884 133.157 120.758L135.298 116.854C135.676 116.854 136.054 116.728 136.431 116.476L135.298 127.683C135.298 127.809 135.298 127.935 135.298 128.061C135.298 128.187 135.424 128.313 135.55 128.439C135.676 128.565 135.676 128.565 135.802 128.565C135.928 128.565 136.054 128.691 136.18 128.691C136.431 128.691 136.683 128.565 136.809 128.439L143.861 121.387C144.994 120.254 145.749 118.869 146.127 117.232L148.394 107.158C154.438 102.247 159.223 98.092 161.489 95.9514C165.141 92.2997 167.408 87.6407 168.037 82.4779C168.541 80.4632 168.415 78.1967 167.911 75.9301ZM146.379 109.173L144.616 117.106C144.364 118.365 143.735 119.498 142.853 120.38L137.565 125.669L138.572 115.343C141.216 113.328 143.861 111.188 146.379 109.173ZM134.039 96.7069C131.898 99.2253 129.884 101.87 127.869 104.514L117.543 105.521L122.832 100.233C123.713 99.3512 124.847 98.7216 126.106 98.4698L134.039 96.7069ZM142.476 102.121C142.601 101.996 142.727 101.87 142.727 101.618C142.727 101.366 142.727 101.24 142.727 101.114C142.601 100.988 142.601 100.862 142.35 100.736C142.224 100.61 141.972 100.61 141.846 100.61C141.594 100.61 141.342 100.736 141.216 100.862L130.513 111.565L128.498 109.551C128.121 109.173 127.995 108.795 127.995 108.292C127.995 107.788 128.121 107.41 128.372 107.032C131.143 103.381 134.165 99.6031 137.061 95.9514L137.187 95.8255C142.224 89.6554 146.253 84.8704 148.52 82.7298C150.786 80.4632 153.682 78.7003 156.83 77.693L165.645 86.5074C164.637 89.6554 162.875 92.4256 160.608 94.8181C158.467 96.9587 153.682 101.114 147.512 106.151H147.386C143.861 109.047 139.957 112.069 136.305 114.839C135.928 115.091 135.424 115.217 135.046 115.217C134.543 115.217 134.165 114.965 133.787 114.713L131.772 112.699L142.476 102.121ZM133.661 116.728L132.402 118.995L124.343 110.936L126.484 109.803C126.61 110.18 126.861 110.558 127.239 110.81L132.402 115.973C132.654 116.35 133.157 116.602 133.661 116.728ZM166.148 84.4927L158.719 77.0634C159.349 76.9375 160.104 76.8115 160.734 76.8115C162.623 76.5597 164.512 76.6856 166.274 76.9375C166.652 79.4559 166.652 81.9743 166.148 84.4927Z" fill="#005FBE"/>
<path d="M148.897 94.5663C149.149 94.8181 149.401 95.07 149.401 95.07C150.66 95.9514 152.045 96.4551 153.556 96.4551C155.193 96.4551 156.83 95.8255 158.09 94.8181C159.349 93.6849 160.23 92.2997 160.482 90.6628C160.734 89.0258 160.482 87.3889 159.601 85.8778C158.719 84.4927 157.46 83.3594 155.823 82.8557C155.193 82.6039 154.438 82.478 153.682 82.478C153.682 82.478 153.305 82.478 152.927 82.478C152.549 82.478 152.297 82.6039 152.171 82.6039C150.912 82.8557 149.779 83.3594 148.897 84.2408C148.016 84.9964 147.26 86.1297 146.883 87.2629C146.505 88.3962 146.379 89.6554 146.631 90.9146C146.883 92.1738 147.386 93.3071 148.268 94.1885C148.52 94.1885 148.646 94.4404 148.897 94.5663ZM155.949 94.0626C154.69 94.6922 153.305 94.8181 151.92 94.3144C150.912 93.9367 150.031 93.3071 149.527 92.5516C148.897 91.796 148.52 90.7887 148.52 89.7813C148.394 88.774 148.646 87.7666 149.275 86.8852C149.779 86.0037 150.534 85.2482 151.542 84.8704C152.297 84.4927 153.053 84.3668 153.808 84.3668C154.438 84.3668 154.942 84.4927 155.445 84.6186C156.453 84.9964 157.334 85.626 157.964 86.3815C158.593 87.2629 158.971 88.1444 158.971 89.2776C159.097 90.285 158.845 91.2924 158.216 92.1738C157.586 92.9293 156.83 93.6849 155.949 94.0626Z" fill="#005FBE"/>
<path d="M154.942 85.7518C154.06 85.3741 153.053 85.3741 152.171 85.7518C151.29 86.1296 150.534 86.8851 150.283 87.7666C150.157 88.0184 150.157 88.2702 150.283 88.3962C150.408 88.648 150.534 88.7739 150.786 88.8998C150.912 88.8998 151.038 88.8998 151.164 88.8998C151.29 88.8998 151.542 88.8998 151.668 88.7739C151.794 88.648 151.92 88.5221 152.045 88.3962C152.171 87.8925 152.549 87.6406 153.053 87.3888C153.556 87.2629 154.06 87.2629 154.438 87.3888C154.564 87.3888 154.69 87.5147 154.816 87.5147C154.942 87.5147 155.068 87.5147 155.193 87.3888C155.319 87.3888 155.445 87.2629 155.445 87.137C155.571 87.011 155.571 87.011 155.697 86.8851C155.697 86.7592 155.823 86.6333 155.823 86.5074C155.823 86.3814 155.823 86.2555 155.697 86.1296C155.697 86.0037 155.571 85.8778 155.445 85.8778C155.068 85.8778 155.068 85.8777 154.942 85.7518Z" fill="#005FBE"/>
<path d="M172.193 147.83H107.47C106.84 147.83 106.211 147.579 105.707 147.075C105.203 146.571 104.951 145.942 104.951 145.312V58.4272C104.951 57.7976 105.203 57.168 105.707 56.6643C106.211 56.1607 106.84 55.9088 107.47 55.9088H166.023L174.711 66.2343V145.312C174.711 145.942 174.459 146.571 173.956 147.075C173.452 147.579 172.822 147.83 172.193 147.83Z" stroke="black" stroke-width="2.5184" stroke-miterlimit="10"/>
<path d="M161.867 59.0568V67.8712H170.682" stroke="black" stroke-width="1.8888" stroke-miterlimit="10"/>
</g>
<defs>
<clipPath id="clip0_101_1830">
<rect width="188.88" height="169.992" fill="white" transform="translate(0.0599976 0.504028)"/>
</clipPath>
</defs>
</svg>
