<svg width="16" height="16" viewBox="0 0 16 16" fill="none" xmlns="http://www.w3.org/2000/svg">
<g clip-path="url(#clip0_101_2532)">
<path d="M6.11499 11.2812C6.11499 10.7246 6.198 10.1973 6.36401 9.69922C6.53003 9.19141 6.76196 8.72754 7.05981 8.30762C7.35767 7.8877 7.71167 7.5166 8.12183 7.19434C8.54175 6.87207 8.99585 6.62305 9.48413 6.44727C9.60132 6.17383 9.69409 5.89062 9.76245 5.59766C9.83081 5.30469 9.86499 5.01172 9.86499 4.71875C9.86499 4.13281 9.85034 3.58594 9.82104 3.07812C9.79175 2.56055 9.68921 2.11133 9.51343 1.73047C9.33765 1.34961 9.05933 1.05176 8.67847 0.836914C8.29761 0.612305 7.75562 0.5 7.05249 0.5C6.34937 0.5 5.80737 0.612305 5.42651 0.836914C5.04565 1.05176 4.76733 1.34961 4.59155 1.73047C4.41577 2.11133 4.31323 2.56055 4.28394 3.07812C4.25464 3.58594 4.23999 4.13281 4.23999 4.71875C4.23999 5.44141 4.4231 6.12988 4.78931 6.78418C5.15552 7.43848 5.59741 7.91211 6.11499 8.20508V8.98145C5.32397 9.04004 4.58179 9.18164 3.88843 9.40625C3.20483 9.62109 2.61157 9.89209 2.10864 10.2192C1.60571 10.5464 1.20776 10.9199 0.914795 11.3398C0.631592 11.7695 0.48999 12.2188 0.48999 12.6875H6.30542C6.24683 12.4629 6.20044 12.2334 6.16626 11.999C6.13208 11.7646 6.11499 11.5254 6.11499 11.2812ZM11.2712 7.0625C10.6853 7.0625 10.1384 7.1748 9.63062 7.39941C9.11304 7.61426 8.66382 7.91211 8.28296 8.29297C7.9021 8.67383 7.60425 9.12305 7.3894 9.64062C7.16479 10.1484 7.05249 10.6953 7.05249 11.2812C7.05249 11.8672 7.16479 12.4141 7.3894 12.9219C7.60425 13.4395 7.9021 13.8887 8.28296 14.2695C8.66382 14.6504 9.11304 14.9482 9.63062 15.1631C10.1384 15.3877 10.6853 15.5 11.2712 15.5C11.8572 15.5 12.4041 15.3877 12.9119 15.1631C13.4294 14.9482 13.8787 14.6504 14.2595 14.2695C14.6404 13.8887 14.9382 13.4395 15.1531 12.9219C15.3777 12.4141 15.49 11.8672 15.49 11.2812C15.49 10.6953 15.3777 10.1484 15.1531 9.64062C14.9382 9.12305 14.6404 8.67383 14.2595 8.29297C13.8787 7.91211 13.4294 7.61426 12.9119 7.39941C12.4041 7.1748 11.8572 7.0625 11.2712 7.0625ZM13.615 11.75H11.74V13.625H10.8025V11.75H8.92749V10.8125H10.8025V8.9375H11.74V10.8125H13.615V11.75Z" fill="white"/>
</g>
<defs>
<clipPath id="clip0_101_2532">
<rect width="15" height="15" fill="white" transform="matrix(1 0 0 -1 0.48999 15.5)"/>
</clipPath>
</defs>
</svg>
