<svg width="189" height="171" viewBox="0 0 189 171" fill="none" xmlns="http://www.w3.org/2000/svg">
<path d="M161.795 11.8737H27.2053C25.5266 11.8757 23.9172 12.5435 22.7302 13.7306C21.5432 14.9178 20.8755 16.5272 20.8737 18.206V145.833C20.8737 151.854 25.7678 159.126 31.8462 159.126H157.154C160.063 159.123 162.852 157.966 164.909 155.909C166.966 153.852 168.123 151.063 168.126 148.154V18.206C168.124 16.5272 167.457 14.9178 166.27 13.7306C165.083 12.5435 163.473 11.8757 161.795 11.8737ZM157.154 155.745H31.8462C27.9358 155.745 24.2553 150.161 24.2553 145.833V33.8193H164.745V148.154C164.742 150.166 163.942 152.096 162.519 153.519C161.096 154.942 159.166 155.742 157.154 155.745ZM27.2053 15.2554H161.795C162.577 15.2563 163.327 15.5675 163.88 16.1207C164.433 16.6738 164.744 17.4238 164.745 18.206V30.4377H24.2553V18.206C24.2561 17.4238 24.5671 16.6738 25.1202 16.1207C25.6732 15.5675 26.4231 15.2563 27.2053 15.2554Z" fill="black"/>
<path d="M31.8462 24.5376H36.4883C36.9359 24.5364 37.3648 24.3577 37.6809 24.0408C37.997 23.7238 38.1745 23.2945 38.1745 22.8468C38.1745 22.3992 37.997 21.9698 37.6809 21.6529C37.3648 21.3359 36.9359 21.1572 36.4883 21.156H31.8462C31.3986 21.1572 30.9697 21.3359 30.6536 21.6529C30.3375 21.9698 30.16 22.3992 30.16 22.8468C30.16 23.2945 30.3375 23.7238 30.6536 24.0408C30.9697 24.3577 31.3986 24.5364 31.8462 24.5376Z" fill="black"/>
<path d="M45.77 24.5376H50.4108C50.8584 24.5364 51.2873 24.3577 51.6034 24.0408C51.9195 23.7238 52.097 23.2945 52.097 22.8468C52.097 22.3992 51.9195 21.9698 51.6034 21.6529C51.2873 21.3359 50.8584 21.1572 50.4108 21.156H45.77C45.3223 21.1572 44.8934 21.3359 44.5773 21.6529C44.2612 21.9698 44.0837 22.3992 44.0837 22.8468C44.0837 23.2945 44.2612 23.7238 44.5773 24.0408C44.8934 24.3577 45.3223 24.5364 45.77 24.5376Z" fill="black"/>
<path d="M59.6925 24.5376H64.3334C64.781 24.5364 65.2099 24.3577 65.526 24.0408C65.8421 23.7238 66.0196 23.2945 66.0196 22.8468C66.0196 22.3992 65.8421 21.9698 65.526 21.6529C65.2099 21.3359 64.781 21.1572 64.3334 21.156H59.6925C59.2448 21.1572 58.816 21.3359 58.4999 21.6529C58.1838 21.9698 58.0063 22.3992 58.0063 22.8468C58.0063 23.2945 58.1838 23.7238 58.4999 24.0408C58.816 24.3577 59.2448 24.5364 59.6925 24.5376Z" fill="black"/>
<path d="M151.302 26.0649C151.454 26.2177 151.635 26.3389 151.834 26.4216C152.034 26.5043 152.247 26.5469 152.463 26.547C152.679 26.547 152.892 26.5045 153.092 26.4219C153.291 26.3393 153.472 26.2182 153.625 26.0656L154.68 25.0129L155.73 26.0637C155.882 26.2168 156.063 26.3383 156.263 26.4212C156.462 26.5041 156.676 26.5469 156.892 26.547C157.108 26.5471 157.322 26.5046 157.522 26.4219C157.721 26.3392 157.903 26.2179 158.055 26.065C158.361 25.7564 158.533 25.3392 158.533 24.9045C158.533 24.4698 158.36 24.0528 158.054 23.7445L157 22.6919L158.055 21.6375C158.361 21.3286 158.533 20.9111 158.533 20.4761C158.532 20.0412 158.36 19.624 158.053 19.3158C157.9 19.1633 157.719 19.0424 157.52 18.9599C157.321 18.8774 157.107 18.835 156.892 18.835C156.676 18.8351 156.463 18.8776 156.263 18.9602C156.064 19.0428 155.883 19.1639 155.731 19.3164L154.678 20.3697L153.626 19.3171C153.473 19.1643 153.292 19.043 153.092 18.9603C152.893 18.8776 152.679 18.835 152.463 18.835C152.247 18.835 152.033 18.8776 151.834 18.9603C151.634 19.043 151.453 19.1643 151.3 19.3171C150.994 19.6258 150.823 20.043 150.823 20.4778C150.823 20.9126 150.995 21.3297 151.302 21.6381L152.356 22.6919L151.3 23.7445C150.994 24.0532 150.823 24.4703 150.823 24.905C150.823 25.3397 150.995 25.7567 151.302 26.0649Z" fill="black"/>
<path d="M48.0904 132.539H38.8087C38.3604 132.54 37.9307 132.718 37.6137 133.035C37.2968 133.352 37.1184 133.782 37.1179 134.23V143.512C37.1182 143.96 37.2964 144.39 37.6134 144.707C37.9304 145.025 38.3602 145.203 38.8087 145.204H48.0904C48.5388 145.203 48.9687 145.025 49.2857 144.707C49.6026 144.39 49.7809 143.96 49.7812 143.512V134.23C49.7806 133.782 49.6023 133.352 49.2853 133.035C48.9683 132.718 48.5386 132.54 48.0904 132.539ZM40.4995 141.821V135.921H46.3995V141.821L40.4995 141.821Z" fill="black"/>
<path d="M57.372 135.921H136.269C136.717 135.921 137.147 135.743 137.464 135.426C137.781 135.109 137.96 134.679 137.96 134.23C137.96 133.782 137.781 133.352 137.464 133.035C137.147 132.717 136.717 132.539 136.269 132.539H57.372C56.9236 132.539 56.4935 132.717 56.1764 133.035C55.8594 133.352 55.6812 133.782 55.6812 134.23C55.6812 134.679 55.8594 135.109 56.1764 135.426C56.4935 135.743 56.9236 135.921 57.372 135.921Z" fill="black"/>
<path d="M136.269 141.821H57.372C56.9234 141.821 56.4932 141.999 56.176 142.316C55.8588 142.634 55.6806 143.064 55.6806 143.512C55.6806 143.961 55.8588 144.391 56.176 144.708C56.4932 145.026 56.9234 145.204 57.372 145.204H136.269C136.717 145.204 137.148 145.026 137.465 144.708C137.782 144.391 137.96 143.961 137.96 143.512C137.96 143.064 137.782 142.634 137.465 142.316C137.148 141.999 136.717 141.821 136.269 141.821Z" fill="black"/>
<path d="M162.144 101.458L158.845 89.9048V62.0327L158.749 61.7523C158.662 61.4966 158.516 61.2653 158.322 61.0776C158.128 60.8899 157.892 60.7513 157.633 60.6732L94.9796 42.1099C94.6666 42.0172 94.3334 42.0172 94.0204 42.1099L31.3666 60.6726C31.012 60.7775 30.7015 60.9957 30.4827 61.2939C30.2639 61.592 30.1489 61.9537 30.1553 62.3235C30.1618 62.6932 30.2892 63.0507 30.5182 63.3411C30.7472 63.6315 31.0651 63.8388 31.4232 63.9313L55.6812 70.2205V97.1021C55.6812 107.661 71.6438 115.037 94.5 115.037C117.356 115.037 133.319 107.661 133.319 97.1021V70.2205L155.463 64.4791V89.9048L152.163 101.458C151.942 102.23 151.903 103.044 152.05 103.834C152.197 104.624 152.525 105.369 153.009 106.01C153.492 106.652 154.119 107.173 154.838 107.531C155.557 107.889 156.35 108.076 157.153 108.076C157.957 108.076 158.749 107.889 159.469 107.531C160.188 107.173 160.814 106.652 161.298 106.01C161.782 105.369 162.11 104.624 162.257 103.834C162.403 103.044 162.365 102.23 162.144 101.458ZM94.5 111.655C71.4827 111.655 59.0629 104.157 59.0629 97.1021V86.3743L60.1143 87.3187C60.7832 87.9295 61.4922 88.4948 62.2367 89.0108C62.6056 89.2655 63.0605 89.3632 63.5015 89.2825C63.9424 89.2018 64.3332 88.9492 64.5879 88.5804C64.8426 88.2115 64.9404 87.7566 64.8596 87.3156C64.7789 86.8747 64.5264 86.4839 64.1575 86.2292C60.8251 83.9334 59.0629 81.2742 59.0629 78.5387V71.0973L94.077 80.1755C94.3548 80.2478 94.6466 80.2476 94.9243 80.1748L129.937 71.0973V78.5387C129.937 85.5935 117.517 93.0908 94.5 93.0908C88.7205 93.1407 82.9521 92.5731 77.2931 91.3976C77.1754 91.3729 77.0555 91.3601 76.9352 91.3594C76.5505 91.3605 76.1775 91.492 75.8773 91.7326C75.577 91.9732 75.3674 92.3086 75.2825 92.6838C75.2347 92.901 75.2301 93.1254 75.2692 93.3443C75.3082 93.5632 75.39 93.7722 75.51 93.9594C75.6299 94.1467 75.7856 94.3084 75.9681 94.4353C76.1507 94.5623 76.3565 94.652 76.5737 94.6993C82.4687 95.9286 88.4784 96.5231 94.5 96.4725C109.874 96.4725 122.408 93.1499 128.887 87.3556L129.937 86.4161V97.1021C129.937 104.157 117.517 111.655 94.5 111.655ZM150.836 62.1864L94.5 76.7914L38.1643 62.1864L94.5 45.4946L150.836 62.1864ZM155.411 102.386L157.155 96.2954L158.895 102.386C158.972 102.656 158.985 102.939 158.933 103.214C158.882 103.49 158.767 103.75 158.598 103.973C158.43 104.197 158.211 104.378 157.96 104.503C157.71 104.628 157.433 104.693 157.153 104.693C156.873 104.693 156.597 104.628 156.346 104.503C156.095 104.378 155.877 104.197 155.708 103.973C155.539 103.75 155.424 103.49 155.373 103.214C155.322 102.939 155.335 102.656 155.411 102.386Z" fill="#005FBE"/>
</svg>
