<svg width="189" height="171" viewBox="0 0 189 171" fill="none" xmlns="http://www.w3.org/2000/svg">
<g clip-path="url(#clip0_101_1880)">
<path d="M37.9619 164.2C37.2064 164.2 36.5768 163.696 36.5768 162.815V154.504C36.5768 153.749 37.0805 153.119 37.9619 153.119C38.7174 153.119 39.347 153.623 39.347 154.504V162.815C39.473 163.444 38.7174 164.2 37.9619 164.2Z" fill="#005FBE"/>
<path d="M29.2734 164.2C28.5179 164.2 27.8883 163.696 27.8883 162.815V146.319C27.8883 139.772 34.1843 138.009 37.3323 138.009H44.132C44.132 138.009 45.3912 137.883 45.3912 137.127C45.3912 136.372 45.8949 135.868 46.7763 135.868C47.5318 135.868 48.0355 136.372 48.0355 137.253C48.0355 139.772 45.5171 140.653 44.2579 140.653H37.4582C36.7027 140.653 30.6586 140.779 30.6586 146.319V162.815C30.6586 163.445 29.903 164.2 29.2734 164.2Z" fill="#005FBE"/>
<path d="M66.0421 163.445C65.2866 163.445 64.657 162.941 64.657 162.059V154.378C64.657 153.623 65.1607 152.993 66.0421 152.993C66.7976 152.993 67.4272 153.497 67.4272 154.378V162.059C67.3013 162.941 66.7976 163.445 66.0421 163.445Z" fill="#005FBE"/>
<path d="M74.8565 163.822C74.101 163.822 73.4714 163.319 73.4714 162.437V146.193C73.4714 140.653 66.7976 140.527 66.6717 140.527H59.872C59.872 140.527 58.4869 140.527 57.6054 139.646C57.1018 139.268 56.4722 138.386 56.4722 137.127C56.4722 136.372 56.9758 135.742 57.7314 135.742C58.4869 135.742 58.9906 136.246 59.1165 137.001C59.1165 137.127 59.1165 137.505 59.2424 137.757C59.3683 137.883 59.6202 137.883 59.6202 137.883H66.4198C69.6938 137.883 75.8638 139.646 75.8638 146.193V162.437C76.1157 163.319 75.612 163.822 74.8565 163.822Z" fill="#005FBE"/>
<path d="M51.939 134.231C45.0134 134.231 39.0952 127.809 39.0952 120.002C39.0952 112.195 44.7616 105.773 51.939 105.773C58.8646 105.773 64.7829 112.195 64.7829 120.002C64.7829 127.935 59.1165 134.231 51.939 134.231ZM51.939 108.292C46.3986 108.292 41.7395 113.454 41.7395 119.876C41.7395 126.298 46.1467 131.461 51.939 131.461C57.4795 131.461 62.1386 126.298 62.1386 119.876C62.1386 113.706 57.7314 108.292 51.939 108.292Z" fill="#005FBE"/>
<path d="M129.128 164.2C128.372 164.2 127.743 163.696 127.743 162.815V154.504C127.743 153.749 128.247 153.119 129.128 153.119C129.884 153.119 130.513 153.623 130.513 154.504V162.815C130.387 163.444 129.884 164.2 129.128 164.2Z" fill="#005FBE"/>
<path d="M120.44 164.2C119.684 164.2 119.054 163.696 119.054 162.815V146.319C119.054 139.772 125.35 138.009 128.498 138.009H135.298C135.298 138.009 136.557 137.883 136.557 137.127C136.557 136.372 137.061 135.868 137.942 135.868C138.698 135.868 139.202 136.372 139.202 137.253C139.202 139.772 136.683 140.653 135.424 140.653H128.624C127.869 140.653 121.825 140.779 121.825 146.319V162.815C121.699 163.445 121.195 164.2 120.44 164.2Z" fill="#005FBE"/>
<path d="M157.082 163.445C156.327 163.445 155.697 162.941 155.697 162.059V154.378C155.697 153.623 156.201 152.993 157.082 152.993C157.964 152.993 158.467 153.497 158.467 154.378V162.059C158.467 162.941 157.838 163.445 157.082 163.445Z" fill="#005FBE"/>
<path d="M165.771 163.822C165.015 163.822 164.386 163.319 164.386 162.437V146.193C164.386 140.653 157.712 140.527 157.586 140.527H150.786C150.786 140.527 149.401 140.527 148.52 139.646C148.016 139.268 147.386 138.386 147.386 137.127C147.386 136.372 147.89 135.742 148.646 135.742C149.401 135.742 150.031 136.246 150.031 137.001C150.031 137.127 150.031 137.505 150.157 137.757C150.283 137.883 150.534 137.883 150.534 137.883H157.334C160.608 137.883 166.778 139.646 166.778 146.193V162.437C167.282 163.319 166.526 163.822 165.771 163.822Z" fill="#005FBE"/>
<path d="M143.105 134.231C136.18 134.231 130.261 127.809 130.261 120.002C130.261 112.195 135.928 105.773 143.105 105.773C150.031 105.773 155.949 112.195 155.949 120.002C155.949 127.935 150.157 134.231 143.105 134.231ZM143.105 108.292C137.565 108.292 132.906 113.454 132.906 119.876C132.906 126.298 137.313 131.461 143.105 131.461C148.646 131.461 153.305 126.298 153.305 119.876C153.305 113.706 148.646 108.292 143.105 108.292Z" fill="#005FBE"/>
<path d="M83.545 164.2C82.7894 164.2 82.1598 163.696 82.1598 162.815V154.504C82.1598 153.749 82.6635 153.119 83.545 153.119C84.3005 153.119 84.9301 153.623 84.9301 154.504V162.815C84.8042 163.444 84.3005 164.2 83.545 164.2Z" fill="#005FBE"/>
<path d="M74.8565 164.2C74.101 164.2 73.4714 163.696 73.4714 162.815V146.319C73.4714 139.772 79.7674 138.009 82.9154 138.009H89.715C89.715 138.009 90.9742 137.883 90.9742 137.127C90.9742 136.372 91.7298 135.868 92.3594 135.868C92.989 135.868 93.6186 136.372 93.6186 137.253C93.6186 139.772 91.1002 140.653 89.841 140.653H83.0413C82.2858 140.653 76.2416 140.779 76.2416 146.319V162.815C76.1157 163.445 75.4861 164.2 74.8565 164.2Z" fill="#005FBE"/>
<path d="M111.499 163.445C110.744 163.445 110.114 162.941 110.114 162.059V154.378C110.114 153.623 110.618 152.993 111.499 152.993C112.255 152.993 112.884 153.497 112.884 154.378V162.059C112.884 162.941 112.381 163.445 111.499 163.445Z" fill="#005FBE"/>
<path d="M120.188 163.822C119.432 163.822 118.803 163.319 118.803 162.437V146.193C118.803 140.653 112.758 140.527 112.003 140.527H105.203C105.203 140.527 103.818 140.527 102.937 139.646C102.433 139.268 101.803 138.386 101.803 137.127C101.803 136.372 102.307 135.742 103.063 135.742C103.818 135.742 104.322 136.246 104.448 137.001C104.448 137.127 104.448 137.505 104.574 137.757C104.7 137.883 104.951 137.883 104.951 137.883H111.751C115.025 137.883 121.195 139.646 121.195 146.193V162.437C121.699 163.319 121.195 163.822 120.188 163.822Z" fill="#005FBE"/>
<path d="M97.5221 134.231C90.5965 134.231 84.6782 127.809 84.6782 120.002C84.6782 112.195 90.3446 105.773 97.5221 105.773C104.448 105.773 110.366 112.195 110.366 120.002C110.366 127.935 104.7 134.231 97.5221 134.231ZM97.5221 108.292C91.9816 108.292 87.3226 113.454 87.3226 119.876C87.3226 126.298 91.7298 131.461 97.5221 131.461C103.063 131.461 107.722 126.298 107.722 119.876C107.722 113.706 103.063 108.292 97.5221 108.292Z" fill="#005FBE"/>
<path d="M13.5334 104.766C10.2595 104.766 7.6152 102.121 7.6152 98.8475V54.5237C7.6152 47.724 14.0371 45.8352 17.437 45.8352H24.3626C24.3626 45.8352 25.6218 45.7093 25.6218 44.9538C25.6218 44.1983 26.3773 43.6946 27.0069 43.6946C27.7624 43.6946 28.2661 44.1983 28.2661 45.0797C28.2661 47.5981 25.7477 48.4795 24.3626 48.6055H17.1851C16.8074 48.6055 10.0077 48.7314 10.0077 54.6496V98.9735C10.0077 100.736 11.3928 102.121 13.2816 102.121C15.0445 102.121 16.5555 100.736 16.5555 98.9735V63.0863C16.5555 62.3307 17.0592 61.7011 17.9406 61.7011C18.6962 61.7011 19.3258 62.2048 19.3258 63.0863V98.8475C19.4517 102.121 16.6814 104.766 13.5334 104.766Z" fill="black"/>
<path d="M47.5318 102.247C46.7763 102.247 46.1467 101.744 46.1467 100.862V58.3013C46.1467 58.1754 46.1467 58.1754 46.1467 57.9235C46.2726 56.9162 47.4059 55.0274 49.6725 55.0274C51.4354 55.0274 84.1746 54.9015 84.1746 54.9015C85.056 54.9015 85.8115 54.5237 86.4411 54.02C86.9448 53.5163 87.3226 52.6349 87.3226 51.7535C87.3226 50.872 86.9448 50.1165 86.4411 49.4869C85.9374 48.9832 85.056 48.6055 84.1746 48.6055C84.1746 48.6055 54.0797 48.7314 46.7763 48.7314H43.3765C39.473 48.7314 38.5915 46.4648 38.5915 44.9538C38.5915 44.1983 39.0952 43.5687 39.9766 43.5687C40.7322 43.5687 41.3618 44.0723 41.3618 44.9538C41.3618 45.4575 42.1173 45.9611 43.5024 45.9611H46.9022C54.2056 45.9611 84.3005 45.8352 84.3005 45.8352C85.9374 45.8352 87.3226 46.3389 88.4558 47.5981C89.5891 48.6055 90.2187 50.2424 90.2187 51.7535C90.2187 53.3904 89.715 54.7755 88.4558 55.9088C87.3226 56.9162 85.8115 57.6717 84.3005 57.6717C84.3005 57.6717 51.5613 57.7976 49.7984 57.7976C49.2947 57.7976 49.0429 58.3013 48.917 58.5531V100.736V101.114C48.791 101.744 48.1614 102.247 47.5318 102.247Z" fill="black"/>
<path d="M33.177 120.002C32.4214 120.002 31.7918 119.498 31.7918 118.617V98.3439C31.7918 97.5883 32.2955 96.9587 33.177 96.9587C33.9325 96.9587 34.5621 97.4624 34.5621 98.3439V118.617C34.4362 119.498 33.9325 120.002 33.177 120.002Z" fill="black"/>
<path d="M18.1925 120.002C17.437 120.002 16.8074 119.498 16.8074 118.617V72.4043C16.8074 71.6488 17.311 71.0192 18.1925 71.0192C18.948 71.0192 19.5776 71.5229 19.5776 72.4043V118.743C19.4517 119.498 18.8221 120.002 18.1925 120.002Z" fill="black"/>
<path d="M33.177 41.9317C25.8736 41.9317 19.8294 35.132 19.8294 26.9472C19.8294 18.7624 25.6218 11.9628 33.177 11.9628C40.4803 11.9628 46.5245 18.7624 46.5245 26.9472C46.5245 35.132 40.4803 41.9317 33.177 41.9317ZM33.177 14.733C27.2587 14.733 22.4738 20.2735 22.4738 27.0732C22.4738 33.8728 27.2587 39.4133 33.177 39.4133C39.0952 39.4133 43.8802 33.8728 43.8802 27.0732C43.8802 20.1476 39.0952 14.733 33.177 14.733Z" fill="black"/>
<path d="M174.585 91.5442H70.953C70.1974 91.5442 69.5678 91.0405 69.5678 90.1591V63.464C69.5678 62.7085 70.0715 62.0789 70.953 62.0789C71.7085 62.0789 72.3381 62.5826 72.3381 63.464V88.8999H173.326V22.1623H72.3381V40.2947C72.3381 41.0503 71.8344 41.6799 70.953 41.6799C70.1974 41.6799 69.5678 41.1762 69.5678 40.2947V20.7771C69.6938 20.0216 70.3234 19.5179 70.953 19.5179H174.585C175.341 19.5179 175.97 20.0216 175.97 20.9031V90.285C175.97 91.0405 175.341 91.5442 174.585 91.5442Z" fill="black"/>
<path d="M180 22.1623H65.5384C64.7829 22.1623 64.1533 21.6586 64.1533 20.7772V11.8368C64.2792 11.0813 64.7829 10.5776 65.5384 10.5776H180C180.755 10.5776 181.385 11.0813 181.385 11.9628V20.9031C181.385 21.6586 180.629 22.1623 180 22.1623ZM66.9235 19.518H178.615V13.3479H66.9235V19.518Z" fill="black"/>
<path d="M162.119 47.0944H149.653C148.897 47.0944 148.268 46.5907 148.268 45.7093V33.2432C148.268 32.4877 148.772 31.8581 149.653 31.8581H162.119C162.875 31.8581 163.504 32.3618 163.504 33.2432V45.7093C163.504 46.5907 162.749 47.0944 162.119 47.0944ZM151.038 44.4501H160.86V34.6283H151.038V44.4501Z" fill="#005FBE"/>
<path d="M162.119 79.0781H149.653C148.897 79.0781 148.268 78.5744 148.268 77.693V65.2269C148.268 64.4714 148.772 63.8418 149.653 63.8418H162.119C162.875 63.8418 163.504 64.3455 163.504 65.2269V77.693C163.504 78.5744 162.749 79.0781 162.119 79.0781ZM151.038 76.4338H160.86V66.612H151.038V76.4338Z" fill="#005FBE"/>
<path d="M138.824 36.3912H99.5368C98.7813 36.3912 98.1517 35.8875 98.1517 35.0061C98.1517 34.2506 98.6554 33.621 99.5368 33.621H138.824C139.579 33.621 140.209 34.1247 140.209 35.0061C140.209 35.8875 139.579 36.3912 138.824 36.3912Z" fill="#005FBE"/>
<path d="M138.824 45.3316H99.5368C98.7813 45.3316 98.1517 44.8279 98.1517 43.9465C98.1517 43.1909 98.6554 42.5613 99.5368 42.5613H138.824C139.579 42.5613 140.209 43.065 140.209 43.9465C140.209 44.702 139.579 45.3316 138.824 45.3316Z" fill="#005FBE"/>
<path d="M138.824 68.3749H99.5368C98.7813 68.3749 98.1517 67.8712 98.1517 66.9898C98.1517 66.2343 98.6554 65.6047 99.5368 65.6047H138.824C139.579 65.6047 140.209 66.1084 140.209 66.9898C140.209 67.8712 139.579 68.3749 138.824 68.3749Z" fill="#005FBE"/>
<path d="M138.824 77.3152H99.5368C98.7813 77.3152 98.1517 76.8115 98.1517 75.9301C98.1517 75.1746 98.6554 74.545 99.5368 74.545H138.824C139.579 74.545 140.209 75.0487 140.209 75.9301C140.209 76.8115 139.579 77.3152 138.824 77.3152Z" fill="#005FBE"/>
</g>
<defs>
<clipPath id="clip0_101_1880">
<rect width="188.88" height="169.992" fill="white" transform="translate(0.0600014 0.504028)"/>
</clipPath>
</defs>
</svg>
