<svg width="189" height="171" viewBox="0 0 189 171" fill="none" xmlns="http://www.w3.org/2000/svg">
<g clip-path="url(#clip0_101_1775)">
<path d="M92.989 163.193L33.6806 143.423V110.936" stroke="#005FBE" stroke-width="2.5184" stroke-linecap="round" stroke-linejoin="round"/>
<path d="M152.171 110.684V143.423L92.989 163.193" stroke="#005FBE" stroke-width="2.5184" stroke-linecap="round" stroke-linejoin="round"/>
<path d="M173.2 64.2196C173.074 63.8418 172.822 63.464 172.444 63.3381L135.55 50.998L127.113 48.2277L113.136 43.5687C112.632 43.4428 112.129 43.5687 111.877 43.8205L92.1075 63.59C91.8557 63.8418 91.7298 64.3455 91.7298 64.7232C91.8557 65.101 92.1075 65.4788 92.4853 65.6047L94.2482 66.2343L97.0184 67.1157C97.7739 66.612 98.7813 66.2343 99.7886 66.2343C102.055 66.2343 103.944 67.6194 104.7 69.6341L107.47 70.6415L151.542 85.3741C151.668 85.3741 151.794 85.3741 151.92 85.3741C152.297 85.3741 152.549 85.2482 152.801 84.9964L172.57 65.2269C173.2 65.101 173.2 64.5973 173.2 64.2196ZM151.794 82.8557L106.588 67.7453L96.8925 64.4714L95.2555 63.9677L112.884 46.213L123.965 49.8647L126.987 50.872C127.617 50.6202 128.372 50.3684 129.128 50.3684C131.143 50.3684 132.906 51.5016 133.787 53.1386L136.809 54.146L169.548 65.101L151.794 82.8557Z" fill="#005FBE"/>
<path d="M112.632 123.654L171.941 104.01L152.171 84.2408L92.989 104.01L112.632 123.654Z" stroke="#005FBE" stroke-width="2.5184" stroke-linecap="round" stroke-linejoin="round"/>
<path d="M73.2195 123.654L13.9112 104.01L33.6806 84.2408L92.989 104.01L73.2195 123.654Z" stroke="#005FBE" stroke-width="2.5184" stroke-linecap="round" stroke-linejoin="round"/>
<path d="M92.989 163.193V104.01" stroke="#005FBE" stroke-width="2.5184" stroke-linecap="round" stroke-linejoin="round"/>
<path d="M63.2719 142.416L73.8491 145.942L84.5523 149.467" stroke="#005FBE" stroke-width="2.5184" stroke-linecap="round" stroke-linejoin="round"/>
<path d="M73.8491 137.631L84.5523 141.157" stroke="#005FBE" stroke-width="2.5184" stroke-linecap="round" stroke-linejoin="round"/>
<path d="M133.157 130.579L143.735 127.054V137.379L133.157 140.905V130.579Z" stroke="#005FBE" stroke-width="2.5184" stroke-linecap="round" stroke-linejoin="round"/>
<path d="M85.6856 22.54C89.3373 22.54 92.2334 19.6439 92.2334 15.9922C92.2334 12.3405 89.3373 9.44434 85.6856 9.44434C82.0339 9.44434 79.1378 12.3405 79.1378 15.9922C79.1378 19.6439 82.0339 22.54 85.6856 22.54Z" stroke="black" stroke-width="2.5184" stroke-linecap="round" stroke-linejoin="round"/>
<path d="M63.2718 28.4583C66.9235 28.4583 69.8197 25.5621 69.8197 21.9105C69.8197 18.2588 66.9235 15.3626 63.2718 15.3626C59.6202 15.3626 56.724 18.2588 56.724 21.9105C56.724 25.5621 59.6202 28.4583 63.2718 28.4583Z" stroke="black" stroke-width="2.5184" stroke-linecap="round" stroke-linejoin="round"/>
<path d="M46.7763 57.6717C50.428 57.6717 53.3242 54.7756 53.3242 51.1239C53.3242 47.4722 50.428 44.576 46.7763 44.576C43.1246 44.576 40.2285 47.4722 40.2285 51.1239C40.2285 54.7756 43.1246 57.6717 46.7763 57.6717Z" stroke="black" stroke-width="2.5184" stroke-linecap="round" stroke-linejoin="round"/>
<path d="M72.8418 72.9081C76.4934 72.9081 79.3896 70.0119 79.3896 66.3602C79.3896 62.7085 76.4934 59.8124 72.8418 59.8124C69.1901 59.8124 66.2939 62.7085 66.2939 66.3602C66.2939 70.0119 69.1901 72.9081 72.8418 72.9081Z" stroke="black" stroke-width="2.5184" stroke-linecap="round" stroke-linejoin="round"/>
<path d="M92.3594 53.8941C96.011 53.8941 98.9072 50.998 98.9072 47.3463C98.9072 43.6946 96.011 40.7985 92.3594 40.7985C88.7077 40.7985 85.8115 43.6946 85.8115 47.3463C85.8115 50.998 88.7077 53.8941 92.3594 53.8941Z" stroke="black" stroke-width="2.5184" stroke-linecap="round" stroke-linejoin="round"/>
<path d="M109.484 35.1321C113.136 35.1321 116.032 32.2359 116.032 28.5842C116.032 24.9325 113.136 22.0364 109.484 22.0364C105.833 22.0364 102.937 24.9325 102.937 28.5842C102.937 32.2359 105.833 35.1321 109.484 35.1321Z" stroke="black" stroke-width="2.5184" stroke-linecap="round" stroke-linejoin="round"/>
<path d="M127.491 22.4141C131.143 22.4141 134.039 19.5179 134.039 15.8663C134.039 12.2146 131.143 9.31842 127.491 9.31842C123.839 9.31842 120.943 12.2146 120.943 15.8663C120.943 19.5179 123.839 22.4141 127.491 22.4141Z" stroke="black" stroke-width="2.5184" stroke-linecap="round" stroke-linejoin="round"/>
<path d="M136.935 54.146C136.683 53.0127 136.18 51.8794 135.55 50.998C134.165 49.1092 131.898 47.85 129.254 47.85C128.498 47.85 127.743 47.9759 126.987 48.2277C125.854 48.6055 124.847 49.1092 123.965 49.8647C122.328 51.2498 121.321 53.3905 121.321 55.657C121.321 59.9383 124.847 63.4641 129.128 63.4641C133.409 63.4641 136.935 59.9383 136.935 55.657C137.061 55.1533 137.061 54.6497 136.935 54.146ZM129.254 60.9457C126.358 60.9457 123.965 58.5532 123.965 55.657C123.965 53.5164 125.224 51.6276 127.113 50.8721C127.743 50.6202 128.498 50.3684 129.254 50.3684C131.269 50.3684 133.032 51.5017 133.913 53.1386C134.291 53.8941 134.543 54.7756 134.543 55.657C134.543 58.5532 132.15 60.9457 129.254 60.9457Z" fill="black"/>
<path d="M142.979 45.7093C146.631 45.7093 149.527 42.8132 149.527 39.1615C149.527 35.5098 146.631 32.6136 142.979 32.6136C139.328 32.6136 136.431 35.5098 136.431 39.1615C136.431 42.8132 139.328 45.7093 142.979 45.7093Z" stroke="black" stroke-width="2.5184" stroke-linecap="round" stroke-linejoin="round"/>
<path d="M99.9145 78.1967C103.566 78.1967 106.462 75.3005 106.462 71.6489C106.462 67.9972 103.566 65.101 99.9145 65.101C96.2629 65.101 93.3667 67.9972 93.3667 71.6489C93.3667 75.3005 96.2629 78.1967 99.9145 78.1967Z" stroke="black" stroke-width="2.5184" stroke-linecap="round" stroke-linejoin="round"/>
<path d="M92.989 163.193L33.6806 143.423V110.936" stroke="#005FBE" stroke-width="2.5184" stroke-linecap="round" stroke-linejoin="round"/>
<path d="M152.171 110.684V143.423L92.989 163.193" stroke="#005FBE" stroke-width="2.5184" stroke-linecap="round" stroke-linejoin="round"/>
<path d="M93.8704 63.5899L74.1009 43.8205C73.7232 43.4427 73.2195 43.3168 72.8417 43.5686L54.4574 49.6128L52.0649 50.3683C52.0649 50.6202 52.0649 50.872 52.0649 50.9979C52.0649 51.7534 51.939 52.509 51.6872 53.1386L54.5833 52.1312L72.9677 45.9611L90.7224 63.9677L80.6488 67.2416L77.8785 68.123C77.123 70.1378 75.2342 71.5229 72.9677 71.5229C71.9603 71.5229 70.9529 71.271 70.0715 70.6414L67.3013 71.5229L34.0584 82.8557L16.1777 64.975L41.2358 56.6643L44.132 55.657C43.2505 55.1533 42.6209 54.5237 42.1173 53.6422L39.7248 54.3978L13.4075 63.0862C13.0297 63.2122 12.652 63.5899 12.652 63.9677C12.5261 64.3454 12.652 64.8491 13.0297 65.101L32.7992 85.1222C33.051 85.3741 33.4288 85.5 33.6806 85.5C33.8065 85.5 33.9325 85.5 34.0584 85.5L69.8197 73.5376L79.6414 70.2637L93.4926 65.6046C93.8704 65.4787 94.2481 65.101 94.3741 64.7232C94.2481 64.3454 94.2481 63.8418 93.8704 63.5899Z" fill="#005FBE"/>
<path d="M112.632 123.654L171.941 104.01L152.171 84.2408L92.989 104.01L112.632 123.654Z" stroke="#005FBE" stroke-width="2.5184" stroke-linecap="round" stroke-linejoin="round"/>
<path d="M73.2195 123.654L13.9112 104.01L33.6806 84.2408L92.989 104.01L73.2195 123.654Z" stroke="#005FBE" stroke-width="2.5184" stroke-linecap="round" stroke-linejoin="round"/>
<path d="M92.989 163.193V104.01" stroke="#005FBE" stroke-width="2.5184" stroke-linecap="round" stroke-linejoin="round"/>
<path d="M63.2719 142.416L73.8491 145.942L84.5523 149.467" stroke="#005FBE" stroke-width="2.5184" stroke-linecap="round" stroke-linejoin="round"/>
<path d="M73.8491 137.631L84.5523 141.157" stroke="#005FBE" stroke-width="2.5184" stroke-linecap="round" stroke-linejoin="round"/>
<path d="M133.157 130.579L143.735 127.054V137.379L133.157 140.905V130.579Z" stroke="#005FBE" stroke-width="2.5184" stroke-linecap="round" stroke-linejoin="round"/>
<path d="M85.6856 22.54C89.3373 22.54 92.2334 19.6439 92.2334 15.9922C92.2334 12.3405 89.3373 9.44434 85.6856 9.44434C82.0339 9.44434 79.1378 12.3405 79.1378 15.9922C79.1378 19.6439 82.0339 22.54 85.6856 22.54Z" stroke="black" stroke-width="2.5184" stroke-linecap="round" stroke-linejoin="round"/>
<path d="M63.2718 28.4583C66.9235 28.4583 69.8197 25.5621 69.8197 21.9105C69.8197 18.2588 66.9235 15.3626 63.2718 15.3626C59.6202 15.3626 56.724 18.2588 56.724 21.9105C56.724 25.5621 59.6202 28.4583 63.2718 28.4583Z" stroke="black" stroke-width="2.5184" stroke-linecap="round" stroke-linejoin="round"/>
<path d="M54.4574 49.6128C53.8278 45.9612 50.5539 43.3168 46.7763 43.3168C42.495 43.3168 38.9693 46.8426 38.9693 51.1239C38.9693 52.3831 39.2211 53.5164 39.7248 54.5237C40.1025 55.2792 40.6062 56.0348 41.2358 56.6644C42.621 58.0495 44.6357 58.9309 46.6504 58.9309C50.5539 58.9309 53.8278 56.0348 54.3315 52.2572C54.4574 51.8794 54.4574 51.5016 54.4574 51.1239C54.5833 50.6202 54.5833 50.1165 54.4574 49.6128ZM46.7763 56.4125C45.7689 56.4125 44.8875 56.1607 44.132 55.657C43.2505 55.1533 42.621 54.5237 42.1173 53.6423C41.6136 52.8868 41.4877 52.0053 41.4877 50.998C41.4877 48.1018 43.8801 45.7093 46.7763 45.7093C49.4206 45.7093 51.6872 47.724 52.0649 50.3684C52.0649 50.6202 52.0649 50.872 52.0649 50.998C52.0649 51.7535 51.939 52.509 51.6872 53.1386C50.8057 55.1533 48.9169 56.4125 46.7763 56.4125Z" fill="black"/>
<path d="M72.8418 58.5532C68.5605 58.5532 65.0347 62.0789 65.0347 66.3602C65.0347 68.5008 65.9162 70.3896 67.1754 71.7748C67.9309 72.5303 68.8123 73.1599 69.6938 73.5376C70.5752 73.9154 71.7085 74.1672 72.7159 74.1672C75.612 74.1672 78.1304 72.6562 79.5155 70.2637C80.0192 69.3823 80.397 68.3749 80.5229 67.2416C80.5229 66.9898 80.5229 66.612 80.5229 66.3602C80.6488 62.0789 77.123 58.5532 72.8418 58.5532ZM72.8418 71.6488C71.8344 71.6488 70.8271 71.397 69.9456 70.7674C68.4346 69.886 67.5531 68.249 67.5531 66.3602C67.5531 63.464 69.9456 61.0716 72.8418 61.0716C75.7379 61.0716 78.1304 63.464 78.1304 66.3602C78.1304 66.9898 78.0045 67.6194 77.7527 68.249C76.9971 70.2637 75.1083 71.6488 72.8418 71.6488Z" fill="black"/>
<path d="M92.3594 53.8941C96.011 53.8941 98.9072 50.998 98.9072 47.3463C98.9072 43.6946 96.011 40.7985 92.3594 40.7985C88.7077 40.7985 85.8115 43.6946 85.8115 47.3463C85.8115 50.998 88.7077 53.8941 92.3594 53.8941Z" stroke="black" stroke-width="2.5184" stroke-linecap="round" stroke-linejoin="round"/>
<path d="M109.484 35.1321C113.136 35.1321 116.032 32.2359 116.032 28.5842C116.032 24.9325 113.136 22.0364 109.484 22.0364C105.833 22.0364 102.937 24.9325 102.937 28.5842C102.937 32.2359 105.833 35.1321 109.484 35.1321Z" stroke="black" stroke-width="2.5184" stroke-linecap="round" stroke-linejoin="round"/>
<path d="M127.491 22.4141C131.143 22.4141 134.039 19.5179 134.039 15.8663C134.039 12.2146 131.143 9.31842 127.491 9.31842C123.839 9.31842 120.943 12.2146 120.943 15.8663C120.943 19.5179 123.839 22.4141 127.491 22.4141Z" stroke="black" stroke-width="2.5184" stroke-linecap="round" stroke-linejoin="round"/>
<path d="M142.979 45.7093C146.631 45.7093 149.527 42.8132 149.527 39.1615C149.527 35.5098 146.631 32.6136 142.979 32.6136C139.328 32.6136 136.431 35.5098 136.431 39.1615C136.431 42.8132 139.328 45.7093 142.979 45.7093Z" stroke="black" stroke-width="2.5184" stroke-linecap="round" stroke-linejoin="round"/>
<path d="M107.722 70.7674C107.596 69.6341 107.218 68.6268 106.714 67.7453C105.329 65.4788 102.811 63.8418 100.04 63.8418C99.0331 63.8418 97.8998 64.0936 97.0184 64.4714C96.011 64.8492 95.1296 65.4788 94.3741 66.2343C92.989 67.6194 92.2334 69.5082 92.2334 71.6488C92.2334 75.9301 95.7592 79.4559 100.04 79.4559C104.322 79.4559 107.848 75.9301 107.848 71.6488C107.722 71.2711 107.722 71.0192 107.722 70.7674ZM99.9146 76.9375C97.0184 76.9375 94.6259 74.545 94.6259 71.6488C94.6259 69.76 95.6333 68.1231 97.1443 67.2416C97.8998 66.738 98.9072 66.3602 99.9146 66.3602C102.181 66.3602 104.07 67.7453 104.825 69.76C105.077 70.3896 105.203 71.0192 105.203 71.6488C105.203 74.545 102.811 76.9375 99.9146 76.9375Z" fill="black"/>
</g>
<defs>
<clipPath id="clip0_101_1775">
<rect width="188.88" height="169.992" fill="white" transform="translate(0.0599976 0.504028)"/>
</clipPath>
</defs>
</svg>
